<svg width="222" height="99" viewBox="0 0 222 99" fill="none" xmlns="http://www.w3.org/2000/svg">
<path d="M33.0135 0V11.0375C30.2394 11.0375 28.0751 11.4723 26.5205 12.3419C24.9658 13.1781 24.2952 14.8671 24.5086 17.4091L25.926 32.2094C26.2918 35.9554 25.9108 38.9824 24.7829 41.2902C23.6855 43.5979 21.9937 45.3709 19.7074 46.6083C17.4517 47.8125 14.7844 48.6653 11.7056 49.1668C14.9673 49.702 17.726 50.5718 19.9818 51.776C22.2375 52.9798 23.8837 54.7191 24.9201 56.9936C25.9565 59.268 26.2918 62.3117 25.926 66.1247L24.5086 80.925C24.2952 83.4668 24.9658 85.1558 26.5205 85.992C28.0751 86.8615 30.2394 87.2964 33.0135 87.2964V98.334C24.6 98.334 18.6862 96.929 15.2721 94.1198C11.8885 91.3435 10.5167 86.5775 11.1569 79.821L12.5286 65.4723C12.7725 62.9305 12.3762 60.9404 11.3398 59.5021C10.3338 58.0639 8.84014 57.0605 6.85873 56.4917C4.87731 55.89 2.59108 55.5889 0 55.5889V42.7451C2.56059 42.7451 4.8316 42.4607 6.81302 41.8922C8.79443 41.2902 10.3034 40.2702 11.3398 38.8319C12.3762 37.3936 12.7725 35.4036 12.5286 32.8616L11.1569 18.6132C10.4862 11.7231 11.858 6.90678 15.2721 4.16415C18.6862 1.38805 24.6 0 33.0135 0Z" fill="#FBFEFF"/>
<path d="M188 0C196.413 0 202.312 1.38805 205.696 4.16415C209.11 6.94025 210.497 11.7231 209.857 18.5129L208.485 32.8616C208.241 35.4036 208.637 37.3936 209.674 38.8319C210.71 40.2702 212.204 41.2902 214.155 41.8922C216.136 42.4607 218.422 42.7451 221.013 42.7451V55.5889C218.453 55.5889 216.182 55.89 214.2 56.4917C212.219 57.0605 210.71 58.0639 209.674 59.5021C208.637 60.9404 208.241 62.9305 208.485 65.4723L209.857 79.7208C210.558 86.5775 209.186 91.3938 205.741 94.1697C202.327 96.946 196.413 98.334 188 98.334V87.2964C190.805 87.2964 192.984 86.8615 194.539 85.992C196.093 85.1558 196.749 83.4668 196.505 80.925L195.087 66.1247C194.722 62.345 195.087 59.318 196.185 57.0439C197.313 54.7358 199.02 52.9798 201.306 51.776C203.592 50.5382 206.275 49.6687 209.354 49.1668C206.092 48.6317 203.318 47.7622 201.032 46.558C198.776 45.3539 197.13 43.6149 196.094 41.3405C195.057 39.0327 194.722 35.989 195.087 32.2094L196.505 17.4091C196.749 14.8671 196.078 13.1781 194.493 12.3419C192.938 11.4723 190.774 11.0375 188 11.0375V0Z" fill="#FFFEFE"/>
<path d="M56.1597 74.9525L61.9869 72.7864V31.3042C61.9869 29.4268 61.8805 28.1993 61.6676 27.6217C61.4548 26.9718 60.896 26.3942 59.9913 25.8887L56 22.7478L56.2395 13H99.5849C99.9574 20.5816 100.144 27.9827 100.144 35.2033L94.2365 35.7448L88.5689 26.2136L76.5152 25.7804V43.4347L93.5181 41.4852V58.1647L76.5152 55.6736V73.1113L89.7663 72.7864L95.9129 63.2552L101.82 63.7967C101.607 71.3783 101.208 78.7794 100.623 86H56.5588L56.1597 74.9525Z" fill="white"/>
<path d="M119.138 74.6276L123.485 72.7864V31.3042C123.485 29.4268 123.393 28.1993 123.209 27.6217C123.071 26.9718 122.634 26.3942 121.898 25.8887L119 23.2893L119.207 13H140.737L141.082 24.0475L135.975 26.2136V46.5757L148.052 26.1053C148.236 25.8165 148.328 25.4194 148.328 24.9139C148.328 24.5529 148.259 24.228 148.121 23.9392L146.119 20.1484L146.878 13H162.888L163.716 20.365L147.914 46.9006L164.82 81.1261V86H151.64L135.975 53.3991V68.454C135.975 70.0425 136.044 71.1256 136.183 71.7033C136.367 72.2809 136.804 72.8586 137.494 73.4362L141.151 76.6855L140.875 86H119.483L119.138 74.6276Z" fill="#FFFBFB"/>
</svg>
